STARTFONT 2.1
FONT -FontForge-Pixellari-Medium-R-Normal--12-120-75-75-P-65-ISO10646-1
SIZE 12 75 75
FONTBOUNDINGBOX 13 12 -2 -3
COMMENT "Generated by fontforge, http://fontforge.sourceforge.net"
COMMENT "ZaccharyDempseyP"
STARTPROPERTIES 39
FOUNDRY "FontForge"
FAMILY_NAME "Pixellari"
WEIGHT_NAME "Medium"
SLANT "R"
SETWIDTH_NAME "Normal"
ADD_STYLE_NAME ""
PIXEL_SIZE 12
POINT_SIZE 120
RESOLUTION_X 75
RESOLUTION_Y 75
SPACING "P"
AVERAGE_WIDTH 65
CHARSET_REGISTRY "ISO10646"
CHARSET_ENCODING "1"
FONTNAME_REGISTRY ""
CHARSET_COLLECTIONS "ISO8859-2 ISO8859-9 ISO8859-4 ISO10646-1"
FONT_NAME "Pixellari"
FACE_NAME "Pixellari"
COPYRIGHT "ZaccharyDempseyP"
FONT_VERSION "001.000"
FONT_ASCENT 9
FONT_DESCENT 3
UNDERLINE_POSITION -2
UNDERLINE_THICKNESS 1
X_HEIGHT 5
CAP_HEIGHT 7
RAW_ASCENT 750
RAW_DESCENT 250
NORM_SPACE 4
RELATIVE_WEIGHT 50
RELATIVE_SETWIDTH 50
SUPERSCRIPT_X 0
SUPERSCRIPT_Y 5
SUPERSCRIPT_SIZE 8
SUBSCRIPT_X 0
SUBSCRIPT_Y 1
SUBSCRIPT_SIZE 8
AVG_LOWERCASE_WIDTH 59
AVG_UPPERCASE_WIDTH 76
ENDPROPERTIES
CHARS 322
STARTCHAR space
ENCODING 32
SWIDTH 312 0
DWIDTH 4 0
BBX 1 1 0 0
BITMAP
00
ENDCHAR
STARTCHAR exclam
ENCODING 33
SWIDTH 250 0
DWIDTH 3 0
BBX 1 8 1 0
BITMAP
80
80
80
80
80
80
80
80
ENDCHAR
STARTCHAR quotedbl
ENCODING 34
SWIDTH 437 0
DWIDTH 5 0
BBX 4 3 1 5
BITMAP
B0
B0
B0
ENDCHAR
STARTCHAR numbersign
ENCODING 35
SWIDTH 562 0
DWIDTH 7 0
BBX 6 9 0 0
BITMAP
48
48
FC
FC
48
FC
FC
48
48
ENDCHAR
STARTCHAR dollar
ENCODING 36
SWIDTH 562 0
DWIDTH 7 0
BBX 5 9 1 -1
BITMAP
30
78
F8
F0
78
38
F8
30
30
ENDCHAR
STARTCHAR percent
ENCODING 37
SWIDTH 875 0
DWIDTH 11 0
BBX 10 8 0 0
BITMAP
7300
DF00
DE00
FF80
6EC0
1EC0
7FC0
6100
ENDCHAR
STARTCHAR ampersand
ENCODING 38
SWIDTH 625 0
DWIDTH 8 0
BBX 6 9 1 0
BITMAP
70
F8
98
D0
F0
F8
98
FC
FC
ENDCHAR
STARTCHAR quotesingle
ENCODING 39
SWIDTH 250 0
DWIDTH 3 0
BBX 1 3 1 5
BITMAP
80
80
80
ENDCHAR
STARTCHAR parenleft
ENCODING 40
SWIDTH 312 0
DWIDTH 4 0
BBX 2 9 1 -1
BITMAP
C0
80
80
80
80
80
80
C0
C0
ENDCHAR
STARTCHAR parenright
ENCODING 41
SWIDTH 375 0
DWIDTH 5 0
BBX 3 9 1 -1
BITMAP
C0
60
60
60
60
60
60
C0
C0
ENDCHAR
STARTCHAR asterisk
ENCODING 42
SWIDTH 437 0
DWIDTH 5 0
BBX 5 5 0 4
BITMAP
60
F8
70
F8
D8
ENDCHAR
STARTCHAR plus
ENCODING 43
SWIDTH 500 0
DWIDTH 6 0
BBX 4 5 1 1
BITMAP
60
F0
F0
60
60
ENDCHAR
STARTCHAR comma
ENCODING 44
SWIDTH 250 0
DWIDTH 3 0
BBX 1 4 1 -2
BITMAP
80
80
80
80
ENDCHAR
STARTCHAR hyphen
ENCODING 45
SWIDTH 500 0
DWIDTH 6 0
BBX 4 2 1 3
BITMAP
F0
F0
ENDCHAR
STARTCHAR period
ENCODING 46
SWIDTH 250 0
DWIDTH 3 0
BBX 1 2 1 0
BITMAP
80
80
ENDCHAR
STARTCHAR slash
ENCODING 47
SWIDTH 437 0
DWIDTH 5 0
BBX 5 9 0 0
BITMAP
18
38
30
70
60
60
40
C0
C0
ENDCHAR
STARTCHAR zero
ENCODING 48
SWIDTH 562 0
DWIDTH 7 0
BBX 5 8 1 0
BITMAP
F8
B8
B8
B8
F8
F8
F8
F0
ENDCHAR
STARTCHAR one
ENCODING 49
SWIDTH 562 0
DWIDTH 7 0
BBX 5 8 1 0
BITMAP
70
F0
F0
30
30
30
F8
F8
ENDCHAR
STARTCHAR two
ENCODING 50
SWIDTH 500 0
DWIDTH 6 0
BBX 4 8 1 0
BITMAP
F0
90
10
30
70
E0
F0
F0
ENDCHAR
STARTCHAR three
ENCODING 51
SWIDTH 500 0
DWIDTH 6 0
BBX 4 8 1 0
BITMAP
F0
90
10
30
30
10
F0
F0
ENDCHAR
STARTCHAR four
ENCODING 52
SWIDTH 562 0
DWIDTH 7 0
BBX 5 8 1 0
BITMAP
30
70
F0
D0
F8
F8
10
10
ENDCHAR
STARTCHAR five
ENCODING 53
SWIDTH 500 0
DWIDTH 6 0
BBX 4 8 1 0
BITMAP
F0
80
80
F0
10
10
F0
F0
ENDCHAR
STARTCHAR six
ENCODING 54
SWIDTH 500 0
DWIDTH 6 0
BBX 4 8 1 0
BITMAP
F0
90
80
F0
90
90
F0
F0
ENDCHAR
STARTCHAR seven
ENCODING 55
SWIDTH 562 0
DWIDTH 7 0
BBX 5 8 1 0
BITMAP
F8
18
18
70
60
60
60
60
ENDCHAR
STARTCHAR eight
ENCODING 56
SWIDTH 500 0
DWIDTH 6 0
BBX 4 8 1 0
BITMAP
F0
90
90
F0
90
90
F0
F0
ENDCHAR
STARTCHAR nine
ENCODING 57
SWIDTH 500 0
DWIDTH 6 0
BBX 4 8 1 0
BITMAP
F0
90
90
F0
10
10
F0
F0
ENDCHAR
STARTCHAR colon
ENCODING 58
SWIDTH 250 0
DWIDTH 3 0
BBX 1 6 1 0
BITMAP
80
80
00
00
80
80
ENDCHAR
STARTCHAR semicolon
ENCODING 59
SWIDTH 250 0
DWIDTH 3 0
BBX 1 8 1 -2
BITMAP
80
80
00
00
80
80
80
80
ENDCHAR
STARTCHAR less
ENCODING 60
SWIDTH 687 0
DWIDTH 8 0
BBX 8 6 0 1
BITMAP
0F
1F
FC
F0
7C
1F
ENDCHAR
STARTCHAR equal
ENCODING 61
SWIDTH 500 0
DWIDTH 6 0
BBX 4 5 1 1
BITMAP
F0
F0
00
F0
F0
ENDCHAR
STARTCHAR greater
ENCODING 62
SWIDTH 687 0
DWIDTH 8 0
BBX 8 6 0 1
BITMAP
E0
F8
7F
0F
7C
F8
ENDCHAR
STARTCHAR question
ENCODING 63
SWIDTH 500 0
DWIDTH 6 0
BBX 4 8 1 0
BITMAP
F0
90
10
70
60
60
60
60
ENDCHAR
STARTCHAR at
ENCODING 64
SWIDTH 875 0
DWIDTH 11 0
BBX 9 10 1 -2
BITMAP
FF00
C380
9D80
BF80
B780
B780
BF80
9F00
C000
FF00
ENDCHAR
STARTCHAR A
ENCODING 65
SWIDTH 625 0
DWIDTH 8 0
BBX 6 8 1 0
BITMAP
F8
DC
8C
FC
FC
8C
8C
8C
ENDCHAR
STARTCHAR B
ENCODING 66
SWIDTH 625 0
DWIDTH 8 0
BBX 6 8 1 0
BITMAP
FC
8C
8C
FC
8C
8C
FC
F8
ENDCHAR
STARTCHAR C
ENCODING 67
SWIDTH 625 0
DWIDTH 8 0
BBX 6 8 1 0
BITMAP
FC
CC
C0
C0
C0
C0
FC
78
ENDCHAR
STARTCHAR D
ENCODING 68
SWIDTH 687 0
DWIDTH 8 0
BBX 7 8 1 0
BITMAP
FE
C6
C6
C6
C6
C6
FE
FC
ENDCHAR
STARTCHAR E
ENCODING 69
SWIDTH 562 0
DWIDTH 7 0
BBX 5 8 1 0
BITMAP
F8
C0
C0
F8
C0
C0
F8
F8
ENDCHAR
STARTCHAR F
ENCODING 70
SWIDTH 562 0
DWIDTH 7 0
BBX 5 8 1 0
BITMAP
F8
C0
C0
F8
C0
C0
C0
C0
ENDCHAR
STARTCHAR G
ENCODING 71
SWIDTH 625 0
DWIDTH 8 0
BBX 6 8 1 0
BITMAP
FC
CC
C0
DC
DC
CC
FC
78
ENDCHAR
STARTCHAR H
ENCODING 72
SWIDTH 625 0
DWIDTH 8 0
BBX 6 8 1 0
BITMAP
8C
8C
8C
FC
8C
8C
8C
8C
ENDCHAR
STARTCHAR I
ENCODING 73
SWIDTH 375 0
DWIDTH 5 0
BBX 3 8 1 0
BITMAP
E0
C0
C0
C0
C0
C0
E0
E0
ENDCHAR
STARTCHAR J
ENCODING 74
SWIDTH 500 0
DWIDTH 6 0
BBX 5 8 0 0
BITMAP
38
18
18
18
18
18
F8
70
ENDCHAR
STARTCHAR K
ENCODING 75
SWIDTH 625 0
DWIDTH 8 0
BBX 6 8 1 0
BITMAP
9C
98
B0
F0
F0
B0
9C
8C
ENDCHAR
STARTCHAR L
ENCODING 76
SWIDTH 500 0
DWIDTH 6 0
BBX 4 8 1 0
BITMAP
80
80
80
80
80
80
F0
F0
ENDCHAR
STARTCHAR M
ENCODING 77
SWIDTH 750 0
DWIDTH 9 0
BBX 7 8 1 0
BITMAP
C6
EE
FE
BA
82
82
82
82
ENDCHAR
STARTCHAR N
ENCODING 78
SWIDTH 687 0
DWIDTH 8 0
BBX 7 8 1 0
BITMAP
C6
E6
F6
F6
BE
9E
9E
86
ENDCHAR
STARTCHAR O
ENCODING 79
SWIDTH 687 0
DWIDTH 8 0
BBX 7 8 1 0
BITMAP
FE
C6
C6
C6
C6
C6
FE
7C
ENDCHAR
STARTCHAR P
ENCODING 80
SWIDTH 562 0
DWIDTH 7 0
BBX 5 8 1 0
BITMAP
F8
98
98
F8
F0
80
80
80
ENDCHAR
STARTCHAR Q
ENCODING 81
SWIDTH 750 0
DWIDTH 9 0
BBX 7 8 1 0
BITMAP
FE
C6
C6
C6
C6
C6
FE
7E
ENDCHAR
STARTCHAR R
ENCODING 82
SWIDTH 625 0
DWIDTH 8 0
BBX 6 8 1 0
BITMAP
FC
8C
8C
FC
8C
8C
8C
8C
ENDCHAR
STARTCHAR S
ENCODING 83
SWIDTH 625 0
DWIDTH 8 0
BBX 6 8 1 0
BITMAP
FC
8C
80
FC
0C
0C
FC
F8
ENDCHAR
STARTCHAR T
ENCODING 84
SWIDTH 625 0
DWIDTH 8 0
BBX 6 8 1 0
BITMAP
FC
30
30
30
30
30
30
30
ENDCHAR
STARTCHAR U
ENCODING 85
SWIDTH 687 0
DWIDTH 8 0
BBX 7 8 1 0
BITMAP
C6
C6
C6
C6
C6
C6
FE
7C
ENDCHAR
STARTCHAR V
ENCODING 86
SWIDTH 687 0
DWIDTH 8 0
BBX 7 8 1 0
BITMAP
C6
C6
C6
C6
C6
EE
7C
10
ENDCHAR
STARTCHAR W
ENCODING 87
SWIDTH 750 0
DWIDTH 9 0
BBX 7 8 1 0
BITMAP
82
82
92
92
92
92
FE
6C
ENDCHAR
STARTCHAR X
ENCODING 88
SWIDTH 625 0
DWIDTH 8 0
BBX 6 8 1 0
BITMAP
DC
D8
F8
70
70
F8
DC
8C
ENDCHAR
STARTCHAR Y
ENCODING 89
SWIDTH 625 0
DWIDTH 8 0
BBX 6 8 1 0
BITMAP
DC
D8
F8
70
30
30
30
30
ENDCHAR
STARTCHAR Z
ENCODING 90
SWIDTH 687 0
DWIDTH 8 0
BBX 8 8 0 0
BITMAP
FF
0E
0C
18
38
70
FF
FF
ENDCHAR
STARTCHAR bracketleft
ENCODING 91
SWIDTH 312 0
DWIDTH 4 0
BBX 2 9 1 -1
BITMAP
C0
80
80
80
80
80
80
C0
C0
ENDCHAR
STARTCHAR backslash
ENCODING 92
SWIDTH 437 0
DWIDTH 5 0
BBX 5 9 0 0
BITMAP
C0
C0
40
60
60
70
30
38
18
ENDCHAR
STARTCHAR bracketright
ENCODING 93
SWIDTH 375 0
DWIDTH 5 0
BBX 3 9 1 -1
BITMAP
E0
60
60
60
60
60
60
E0
E0
ENDCHAR
STARTCHAR asciicircum
ENCODING 94
SWIDTH 500 0
DWIDTH 6 0
BBX 5 4 0 4
BITMAP
20
70
78
D8
ENDCHAR
STARTCHAR underscore
ENCODING 95
SWIDTH 562 0
DWIDTH 7 0
BBX 6 1 0 -2
BITMAP
FC
ENDCHAR
STARTCHAR grave
ENCODING 96
SWIDTH 312 0
DWIDTH 4 0
BBX 2 2 1 6
BITMAP
C0
C0
ENDCHAR
STARTCHAR a
ENCODING 97
SWIDTH 500 0
DWIDTH 6 0
BBX 4 6 1 0
BITMAP
F0
F0
90
90
F0
F0
ENDCHAR
STARTCHAR b
ENCODING 98
SWIDTH 562 0
DWIDTH 7 0
BBX 5 8 1 0
BITMAP
80
80
B0
F8
98
98
F8
B0
ENDCHAR
STARTCHAR c
ENCODING 99
SWIDTH 500 0
DWIDTH 6 0
BBX 4 6 1 0
BITMAP
F0
F0
80
80
F0
F0
ENDCHAR
STARTCHAR d
ENCODING 100
SWIDTH 562 0
DWIDTH 7 0
BBX 5 8 1 0
BITMAP
18
18
F8
F8
98
98
F8
F8
ENDCHAR
STARTCHAR e
ENCODING 101
SWIDTH 500 0
DWIDTH 6 0
BBX 4 6 1 0
BITMAP
F0
F0
F0
80
F0
F0
ENDCHAR
STARTCHAR f
ENCODING 102
SWIDTH 375 0
DWIDTH 5 0
BBX 3 8 1 0
BITMAP
E0
C0
E0
E0
C0
C0
C0
C0
ENDCHAR
STARTCHAR g
ENCODING 103
SWIDTH 562 0
DWIDTH 7 0
BBX 5 8 1 -2
BITMAP
F8
F8
98
98
F8
F8
18
F8
ENDCHAR
STARTCHAR h
ENCODING 104
SWIDTH 562 0
DWIDTH 7 0
BBX 5 8 1 0
BITMAP
80
80
B0
F8
98
98
98
98
ENDCHAR
STARTCHAR i
ENCODING 105
SWIDTH 250 0
DWIDTH 3 0
BBX 1 8 1 0
BITMAP
80
00
80
80
80
80
80
80
ENDCHAR
STARTCHAR j
ENCODING 106
SWIDTH 250 0
DWIDTH 3 0
BBX 3 10 -1 -2
BITMAP
20
00
20
20
20
20
20
20
20
E0
ENDCHAR
STARTCHAR k
ENCODING 107
SWIDTH 500 0
DWIDTH 6 0
BBX 5 8 0 0
BITMAP
C0
C0
C8
F8
F0
F0
F8
C8
ENDCHAR
STARTCHAR l
ENCODING 108
SWIDTH 250 0
DWIDTH 3 0
BBX 1 8 1 0
BITMAP
80
80
80
80
80
80
80
80
ENDCHAR
STARTCHAR m
ENCODING 109
SWIDTH 750 0
DWIDTH 9 0
BBX 7 6 1 0
BITMAP
FE
FE
92
92
92
92
ENDCHAR
STARTCHAR n
ENCODING 110
SWIDTH 500 0
DWIDTH 6 0
BBX 4 6 1 0
BITMAP
F0
F0
90
90
90
90
ENDCHAR
STARTCHAR o
ENCODING 111
SWIDTH 500 0
DWIDTH 6 0
BBX 4 6 1 0
BITMAP
F0
F0
90
90
F0
F0
ENDCHAR
STARTCHAR p
ENCODING 112
SWIDTH 562 0
DWIDTH 7 0
BBX 5 8 1 -2
BITMAP
B0
F8
98
98
F8
B0
80
80
ENDCHAR
STARTCHAR q
ENCODING 113
SWIDTH 562 0
DWIDTH 7 0
BBX 5 8 1 -2
BITMAP
F8
F8
98
98
F8
F8
18
18
ENDCHAR
STARTCHAR r
ENCODING 114
SWIDTH 500 0
DWIDTH 6 0
BBX 4 6 1 0
BITMAP
F0
F0
80
80
80
80
ENDCHAR
STARTCHAR s
ENCODING 115
SWIDTH 500 0
DWIDTH 6 0
BBX 4 6 1 0
BITMAP
F0
F0
F0
F0
F0
F0
ENDCHAR
STARTCHAR t
ENCODING 116
SWIDTH 312 0
DWIDTH 4 0
BBX 3 8 0 0
BITMAP
40
40
E0
E0
40
40
60
60
ENDCHAR
STARTCHAR u
ENCODING 117
SWIDTH 500 0
DWIDTH 6 0
BBX 4 6 1 0
BITMAP
90
90
90
90
F0
F0
ENDCHAR
STARTCHAR v
ENCODING 118
SWIDTH 500 0
DWIDTH 6 0
BBX 4 6 1 0
BITMAP
90
90
90
90
F0
60
ENDCHAR
STARTCHAR w
ENCODING 119
SWIDTH 750 0
DWIDTH 9 0
BBX 7 6 1 0
BITMAP
92
92
92
92
FE
FE
ENDCHAR
STARTCHAR x
ENCODING 120
SWIDTH 500 0
DWIDTH 6 0
BBX 4 6 1 0
BITMAP
90
F0
60
60
F0
90
ENDCHAR
STARTCHAR y
ENCODING 121
SWIDTH 500 0
DWIDTH 6 0
BBX 4 8 1 -2
BITMAP
90
90
90
90
F0
F0
70
E0
ENDCHAR
STARTCHAR z
ENCODING 122
SWIDTH 500 0
DWIDTH 6 0
BBX 4 6 1 0
BITMAP
F0
F0
60
60
F0
F0
ENDCHAR
STARTCHAR braceleft
ENCODING 123
SWIDTH 375 0
DWIDTH 5 0
BBX 4 9 0 -1
BITMAP
70
40
40
C0
C0
40
40
70
70
ENDCHAR
STARTCHAR bar
ENCODING 124
SWIDTH 250 0
DWIDTH 3 0
BBX 1 10 1 -2
BITMAP
80
80
80
80
80
80
80
80
80
80
ENDCHAR
STARTCHAR braceright
ENCODING 125
SWIDTH 375 0
DWIDTH 5 0
BBX 4 9 0 -1
BITMAP
C0
60
60
70
30
60
60
C0
C0
ENDCHAR
STARTCHAR asciitilde
ENCODING 126
SWIDTH 625 0
DWIDTH 8 0
BBX 6 2 1 3
BITMAP
FC
98
ENDCHAR
STARTCHAR uni00A0
ENCODING 160
SWIDTH 312 0
DWIDTH 4 0
BBX 1 1 0 0
BITMAP
00
ENDCHAR
STARTCHAR exclamdown
ENCODING 161
SWIDTH 250 0
DWIDTH 3 0
BBX 1 8 1 -2
BITMAP
80
80
80
80
80
80
80
80
ENDCHAR
STARTCHAR cent
ENCODING 162
SWIDTH 500 0
DWIDTH 6 0
BBX 4 10 1 -2
BITMAP
60
60
F0
F0
E0
E0
F0
F0
60
60
ENDCHAR
STARTCHAR sterling
ENCODING 163
SWIDTH 562 0
DWIDTH 7 0
BBX 6 9 0 0
BITMAP
78
FC
C0
40
F8
40
40
FC
CC
ENDCHAR
STARTCHAR currency
ENCODING 164
SWIDTH 625 0
DWIDTH 8 0
BBX 7 7 0 1
BITMAP
C6
FE
7C
4C
4C
7C
FE
ENDCHAR
STARTCHAR yen
ENCODING 165
SWIDTH 625 0
DWIDTH 8 0
BBX 6 8 1 0
BITMAP
DC
D8
F8
FC
FC
30
FC
30
ENDCHAR
STARTCHAR brokenbar
ENCODING 166
SWIDTH 250 0
DWIDTH 3 0
BBX 1 10 1 -2
BITMAP
80
80
80
80
00
00
80
80
80
80
ENDCHAR
STARTCHAR section
ENCODING 167
SWIDTH 562 0
DWIDTH 7 0
BBX 5 12 1 -3
BITMAP
F0
F0
C0
E0
F0
98
D8
F8
30
18
F8
F0
ENDCHAR
STARTCHAR dieresis
ENCODING 168
SWIDTH 375 0
DWIDTH 5 0
BBX 4 2 0 7
BITMAP
F0
F0
ENDCHAR
STARTCHAR copyright
ENCODING 169
SWIDTH 750 0
DWIDTH 9 0
BBX 9 11 -1 -2
BITMAP
3F00
FF80
DC80
FE80
F680
F080
F680
FE80
E180
7F80
3F00
ENDCHAR
STARTCHAR ordfeminine
ENCODING 170
SWIDTH 437 0
DWIDTH 5 0
BBX 5 5 0 4
BITMAP
70
F8
D8
D8
F8
ENDCHAR
STARTCHAR guillemotleft
ENCODING 171
SWIDTH 562 0
DWIDTH 7 0
BBX 6 4 0 1
BITMAP
6C
D8
D8
6C
ENDCHAR
STARTCHAR logicalnot
ENCODING 172
SWIDTH 625 0
DWIDTH 8 0
BBX 6 3 1 3
BITMAP
FC
FC
0C
ENDCHAR
STARTCHAR registered
ENCODING 174
SWIDTH 750 0
DWIDTH 9 0
BBX 9 11 -1 -2
BITMAP
3F00
FF80
FC80
FE80
FE80
FC80
F680
F680
E180
7F80
3F00
ENDCHAR
STARTCHAR macron
ENCODING 175
SWIDTH 437 0
DWIDTH 5 0
BBX 4 1 1 7
BITMAP
F0
ENDCHAR
STARTCHAR degree
ENCODING 176
SWIDTH 437 0
DWIDTH 5 0
BBX 5 5 0 4
BITMAP
60
F8
D8
70
60
ENDCHAR
STARTCHAR plusminus
ENCODING 177
SWIDTH 500 0
DWIDTH 6 0
BBX 4 6 1 0
BITMAP
60
F0
F0
60
F0
F0
ENDCHAR
STARTCHAR uni00B2
ENCODING 178
SWIDTH 375 0
DWIDTH 5 0
BBX 4 5 0 4
BITMAP
60
F0
70
60
F0
ENDCHAR
STARTCHAR uni00B3
ENCODING 179
SWIDTH 375 0
DWIDTH 5 0
BBX 4 5 0 4
BITMAP
60
F0
70
F0
F0
ENDCHAR
STARTCHAR acute
ENCODING 180
SWIDTH 312 0
DWIDTH 4 0
BBX 2 2 1 6
BITMAP
C0
80
ENDCHAR
STARTCHAR uni00B5
ENCODING 181
SWIDTH 500 0
DWIDTH 6 0
BBX 4 8 1 -2
BITMAP
90
90
90
90
F0
F0
80
80
ENDCHAR
STARTCHAR paragraph
ENCODING 182
SWIDTH 562 0
DWIDTH 7 0
BBX 5 10 1 -2
BITMAP
F8
D8
D8
F8
F8
78
78
78
78
78
ENDCHAR
STARTCHAR periodcentered
ENCODING 183
SWIDTH 250 0
DWIDTH 3 0
BBX 1 1 1 4
BITMAP
80
ENDCHAR
STARTCHAR cedilla
ENCODING 184
SWIDTH 312 0
DWIDTH 4 0
BBX 2 4 1 -3
BITMAP
C0
C0
C0
80
ENDCHAR
STARTCHAR uni00B9
ENCODING 185
SWIDTH 375 0
DWIDTH 5 0
BBX 3 5 1 4
BITMAP
C0
C0
C0
E0
E0
ENDCHAR
STARTCHAR ordmasculine
ENCODING 186
SWIDTH 437 0
DWIDTH 5 0
BBX 5 5 0 4
BITMAP
60
F8
D8
D8
70
ENDCHAR
STARTCHAR guillemotright
ENCODING 187
SWIDTH 562 0
DWIDTH 7 0
BBX 6 4 0 1
BITMAP
D8
6C
6C
D8
ENDCHAR
STARTCHAR onequarter
ENCODING 188
SWIDTH 937 0
DWIDTH 11 0
BBX 10 9 1 0
BITMAP
C000
C600
CE00
EC00
F980
1380
3380
F7C0
C180
ENDCHAR
STARTCHAR onehalf
ENCODING 189
SWIDTH 875 0
DWIDTH 11 0
BBX 9 9 1 0
BITMAP
C000
C600
CE00
EC00
FF80
1780
3380
F780
C780
ENDCHAR
STARTCHAR threequarters
ENCODING 190
SWIDTH 875 0
DWIDTH 11 0
BBX 10 9 0 0
BITMAP
6000
F300
7700
F600
FD80
0980
1B80
7FC0
6180
ENDCHAR
STARTCHAR questiondown
ENCODING 191
SWIDTH 500 0
DWIDTH 6 0
BBX 4 8 1 -2
BITMAP
60
60
60
60
E0
80
90
F0
ENDCHAR
STARTCHAR Agrave
ENCODING 192
SWIDTH 625 0
DWIDTH 8 0
BBX 6 9 1 0
BITMAP
20
70
F8
DC
FC
FC
8C
8C
8C
ENDCHAR
STARTCHAR Aacute
ENCODING 193
SWIDTH 625 0
DWIDTH 8 0
BBX 6 9 1 0
BITMAP
10
70
F8
DC
FC
FC
8C
8C
8C
ENDCHAR
STARTCHAR Acircumflex
ENCODING 194
SWIDTH 625 0
DWIDTH 8 0
BBX 6 9 1 0
BITMAP
30
70
F8
DC
FC
FC
8C
8C
8C
ENDCHAR
STARTCHAR Atilde
ENCODING 195
SWIDTH 625 0
DWIDTH 8 0
BBX 6 9 1 0
BITMAP
30
70
F8
DC
FC
FC
8C
8C
8C
ENDCHAR
STARTCHAR Adieresis
ENCODING 196
SWIDTH 625 0
DWIDTH 8 0
BBX 6 9 1 0
BITMAP
50
70
F8
DC
FC
FC
8C
8C
8C
ENDCHAR
STARTCHAR Aring
ENCODING 197
SWIDTH 625 0
DWIDTH 8 0
BBX 6 9 1 0
BITMAP
70
70
F8
DC
FC
FC
8C
8C
8C
ENDCHAR
STARTCHAR AE
ENCODING 198
SWIDTH 875 0
DWIDTH 11 0
BBX 10 8 0 0
BITMAP
1FC0
1E00
3600
77C0
7E00
7E00
C7C0
C7C0
ENDCHAR
STARTCHAR Ccedilla
ENCODING 199
SWIDTH 625 0
DWIDTH 8 0
BBX 6 11 1 -3
BITMAP
FC
CC
C0
C0
C0
C0
FC
78
30
30
30
ENDCHAR
STARTCHAR Egrave
ENCODING 200
SWIDTH 562 0
DWIDTH 7 0
BBX 5 9 1 0
BITMAP
20
F8
F8
C0
F8
F8
C0
F8
F8
ENDCHAR
STARTCHAR Eacute
ENCODING 201
SWIDTH 562 0
DWIDTH 7 0
BBX 5 9 1 0
BITMAP
10
F8
F8
C0
F8
F8
C0
F8
F8
ENDCHAR
STARTCHAR Ecircumflex
ENCODING 202
SWIDTH 562 0
DWIDTH 7 0
BBX 5 9 1 0
BITMAP
30
F8
F8
C0
F8
F8
C0
F8
F8
ENDCHAR
STARTCHAR Edieresis
ENCODING 203
SWIDTH 562 0
DWIDTH 7 0
BBX 5 9 1 0
BITMAP
50
F8
F8
C0
F8
F8
C0
F8
F8
ENDCHAR
STARTCHAR Igrave
ENCODING 204
SWIDTH 375 0
DWIDTH 5 0
BBX 3 9 1 0
BITMAP
80
E0
E0
C0
C0
C0
C0
E0
E0
ENDCHAR
STARTCHAR Iacute
ENCODING 205
SWIDTH 375 0
DWIDTH 5 0
BBX 3 9 1 0
BITMAP
40
E0
E0
C0
C0
C0
C0
E0
E0
ENDCHAR
STARTCHAR Icircumflex
ENCODING 206
SWIDTH 375 0
DWIDTH 5 0
BBX 3 9 1 0
BITMAP
C0
E0
E0
C0
C0
C0
C0
E0
E0
ENDCHAR
STARTCHAR Idieresis
ENCODING 207
SWIDTH 375 0
DWIDTH 5 0
BBX 3 9 1 0
BITMAP
A0
E0
E0
C0
C0
C0
C0
E0
E0
ENDCHAR
STARTCHAR Eth
ENCODING 208
SWIDTH 687 0
DWIDTH 8 0
BBX 8 8 0 0
BITMAP
7F
63
63
FB
63
63
7F
7E
ENDCHAR
STARTCHAR Ntilde
ENCODING 209
SWIDTH 687 0
DWIDTH 8 0
BBX 7 9 1 0
BITMAP
68
96
C6
E6
F6
BE
9E
9E
86
ENDCHAR
STARTCHAR Ograve
ENCODING 210
SWIDTH 687 0
DWIDTH 8 0
BBX 7 9 1 0
BITMAP
10
7C
FE
C6
C6
C6
C6
FE
7C
ENDCHAR
STARTCHAR Oacute
ENCODING 211
SWIDTH 687 0
DWIDTH 8 0
BBX 7 9 1 0
BITMAP
10
7C
FE
C6
C6
C6
C6
FE
7C
ENDCHAR
STARTCHAR Ocircumflex
ENCODING 212
SWIDTH 687 0
DWIDTH 8 0
BBX 7 9 1 0
BITMAP
10
7C
FE
C6
C6
C6
C6
FE
7C
ENDCHAR
STARTCHAR Otilde
ENCODING 213
SWIDTH 687 0
DWIDTH 8 0
BBX 7 9 1 0
BITMAP
18
7C
FE
C6
C6
C6
C6
FE
7C
ENDCHAR
STARTCHAR Odieresis
ENCODING 214
SWIDTH 687 0
DWIDTH 8 0
BBX 7 9 1 0
BITMAP
28
7C
FE
C6
C6
C6
C6
FE
7C
ENDCHAR
STARTCHAR multiply
ENCODING 215
SWIDTH 500 0
DWIDTH 6 0
BBX 4 5 1 1
BITMAP
90
F0
F0
F0
90
ENDCHAR
STARTCHAR Oslash
ENCODING 216
SWIDTH 812 0
DWIDTH 10 0
BBX 11 11 -2 -2
BITMAP
1FE0
7FE0
61C0
63C0
6740
6E40
7C40
7840
70C0
FFC0
DF80
ENDCHAR
STARTCHAR Ugrave
ENCODING 217
SWIDTH 687 0
DWIDTH 8 0
BBX 7 9 1 0
BITMAP
10
D6
C6
C6
C6
C6
C6
FE
7C
ENDCHAR
STARTCHAR Uacute
ENCODING 218
SWIDTH 687 0
DWIDTH 8 0
BBX 7 9 1 0
BITMAP
10
D6
C6
C6
C6
C6
C6
FE
7C
ENDCHAR
STARTCHAR Ucircumflex
ENCODING 219
SWIDTH 687 0
DWIDTH 8 0
BBX 7 9 1 0
BITMAP
10
EE
C6
C6
C6
C6
C6
FE
7C
ENDCHAR
STARTCHAR Udieresis
ENCODING 220
SWIDTH 687 0
DWIDTH 8 0
BBX 7 9 1 0
BITMAP
28
C6
C6
C6
C6
C6
C6
FE
7C
ENDCHAR
STARTCHAR Yacute
ENCODING 221
SWIDTH 625 0
DWIDTH 8 0
BBX 6 9 1 0
BITMAP
10
AC
DC
D8
F8
30
30
30
30
ENDCHAR
STARTCHAR Thorn
ENCODING 222
SWIDTH 625 0
DWIDTH 8 0
BBX 6 8 1 0
BITMAP
80
F0
F8
9C
9C
F8
F0
80
ENDCHAR
STARTCHAR germandbls
ENCODING 223
SWIDTH 625 0
DWIDTH 8 0
BBX 6 8 1 0
BITMAP
F8
98
98
98
98
9C
FC
B8
ENDCHAR
STARTCHAR agrave
ENCODING 224
SWIDTH 500 0
DWIDTH 6 0
BBX 4 8 1 0
BITMAP
60
00
F0
F0
90
90
F0
F0
ENDCHAR
STARTCHAR aacute
ENCODING 225
SWIDTH 500 0
DWIDTH 6 0
BBX 4 8 1 0
BITMAP
60
00
F0
F0
90
90
F0
F0
ENDCHAR
STARTCHAR acircumflex
ENCODING 226
SWIDTH 500 0
DWIDTH 6 0
BBX 4 8 1 0
BITMAP
F0
00
F0
F0
90
90
F0
F0
ENDCHAR
STARTCHAR atilde
ENCODING 227
SWIDTH 500 0
DWIDTH 6 0
BBX 4 8 1 0
BITMAP
F0
00
F0
F0
90
90
F0
F0
ENDCHAR
STARTCHAR adieresis
ENCODING 228
SWIDTH 500 0
DWIDTH 6 0
BBX 4 8 1 0
BITMAP
90
00
F0
F0
90
90
F0
F0
ENDCHAR
STARTCHAR aring
ENCODING 229
SWIDTH 500 0
DWIDTH 6 0
BBX 4 9 1 0
BITMAP
60
F0
00
F0
F0
90
90
F0
F0
ENDCHAR
STARTCHAR ae
ENCODING 230
SWIDTH 812 0
DWIDTH 10 0
BBX 8 6 1 0
BITMAP
F6
FF
9F
98
FF
FE
ENDCHAR
STARTCHAR ccedilla
ENCODING 231
SWIDTH 500 0
DWIDTH 6 0
BBX 4 9 1 -3
BITMAP
F0
F0
80
80
F0
F0
70
70
60
ENDCHAR
STARTCHAR egrave
ENCODING 232
SWIDTH 500 0
DWIDTH 6 0
BBX 4 8 1 0
BITMAP
60
00
F0
F0
F0
80
F0
F0
ENDCHAR
STARTCHAR eacute
ENCODING 233
SWIDTH 500 0
DWIDTH 6 0
BBX 4 8 1 0
BITMAP
60
00
F0
F0
F0
80
F0
F0
ENDCHAR
STARTCHAR ecircumflex
ENCODING 234
SWIDTH 500 0
DWIDTH 6 0
BBX 4 8 1 0
BITMAP
F0
00
F0
F0
F0
80
F0
F0
ENDCHAR
STARTCHAR edieresis
ENCODING 235
SWIDTH 500 0
DWIDTH 6 0
BBX 4 8 1 0
BITMAP
90
00
F0
F0
F0
80
F0
F0
ENDCHAR
STARTCHAR igrave
ENCODING 236
SWIDTH 250 0
DWIDTH 3 0
BBX 1 8 1 0
BITMAP
80
00
80
80
80
80
80
80
ENDCHAR
STARTCHAR iacute
ENCODING 237
SWIDTH 250 0
DWIDTH 3 0
BBX 1 8 1 0
BITMAP
80
00
80
80
80
80
80
80
ENDCHAR
STARTCHAR icircumflex
ENCODING 238
SWIDTH 312 0
DWIDTH 4 0
BBX 3 8 0 0
BITMAP
E0
00
40
40
40
40
40
40
ENDCHAR
STARTCHAR idieresis
ENCODING 239
SWIDTH 312 0
DWIDTH 4 0
BBX 3 8 0 0
BITMAP
A0
00
40
40
40
40
40
40
ENDCHAR
STARTCHAR eth
ENCODING 240
SWIDTH 562 0
DWIDTH 7 0
BBX 5 9 1 0
BITMAP
78
F8
90
F0
F0
90
90
F0
F0
ENDCHAR
STARTCHAR ntilde
ENCODING 241
SWIDTH 500 0
DWIDTH 6 0
BBX 4 8 1 0
BITMAP
F0
00
F0
F0
90
90
90
90
ENDCHAR
STARTCHAR ograve
ENCODING 242
SWIDTH 500 0
DWIDTH 6 0
BBX 4 8 1 0
BITMAP
60
00
F0
F0
90
90
F0
F0
ENDCHAR
STARTCHAR oacute
ENCODING 243
SWIDTH 500 0
DWIDTH 6 0
BBX 4 8 1 0
BITMAP
60
00
F0
F0
90
90
F0
F0
ENDCHAR
STARTCHAR ocircumflex
ENCODING 244
SWIDTH 500 0
DWIDTH 6 0
BBX 4 8 1 0
BITMAP
F0
00
F0
F0
90
90
F0
F0
ENDCHAR
STARTCHAR otilde
ENCODING 245
SWIDTH 500 0
DWIDTH 6 0
BBX 4 8 1 0
BITMAP
F0
00
F0
F0
90
90
F0
F0
ENDCHAR
STARTCHAR odieresis
ENCODING 246
SWIDTH 500 0
DWIDTH 6 0
BBX 4 8 1 0
BITMAP
90
00
F0
F0
90
90
F0
F0
ENDCHAR
STARTCHAR divide
ENCODING 247
SWIDTH 500 0
DWIDTH 6 0
BBX 4 5 1 1
BITMAP
60
F0
F0
00
60
ENDCHAR
STARTCHAR oslash
ENCODING 248
SWIDTH 687 0
DWIDTH 8 0
BBX 8 8 0 -1
BITMAP
03
3F
7E
5E
7E
7E
F8
C0
ENDCHAR
STARTCHAR ugrave
ENCODING 249
SWIDTH 500 0
DWIDTH 6 0
BBX 4 8 1 0
BITMAP
60
00
90
90
90
90
F0
F0
ENDCHAR
STARTCHAR uacute
ENCODING 250
SWIDTH 500 0
DWIDTH 6 0
BBX 4 8 1 0
BITMAP
60
00
90
90
90
90
F0
F0
ENDCHAR
STARTCHAR ucircumflex
ENCODING 251
SWIDTH 500 0
DWIDTH 6 0
BBX 4 8 1 0
BITMAP
F0
00
90
90
90
90
F0
F0
ENDCHAR
STARTCHAR udieresis
ENCODING 252
SWIDTH 500 0
DWIDTH 6 0
BBX 4 8 1 0
BITMAP
90
00
90
90
90
90
F0
F0
ENDCHAR
STARTCHAR yacute
ENCODING 253
SWIDTH 500 0
DWIDTH 6 0
BBX 4 10 1 -2
BITMAP
60
00
90
90
90
90
F0
F0
70
E0
ENDCHAR
STARTCHAR thorn
ENCODING 254
SWIDTH 625 0
DWIDTH 8 0
BBX 6 10 1 -2
BITMAP
80
80
80
F0
F8
9C
9C
F8
F0
80
ENDCHAR
STARTCHAR ydieresis
ENCODING 255
SWIDTH 500 0
DWIDTH 6 0
BBX 4 10 1 -2
BITMAP
90
00
90
90
90
90
F0
F0
70
E0
ENDCHAR
STARTCHAR Amacron
ENCODING 256
SWIDTH 625 0
DWIDTH 8 0
BBX 6 9 1 0
BITMAP
70
70
F8
DC
FC
FC
8C
8C
8C
ENDCHAR
STARTCHAR amacron
ENCODING 257
SWIDTH 500 0
DWIDTH 6 0
BBX 4 8 1 0
BITMAP
F0
00
F0
F0
90
90
F0
F0
ENDCHAR
STARTCHAR Abreve
ENCODING 258
SWIDTH 625 0
DWIDTH 8 0
BBX 6 9 1 0
BITMAP
50
70
F8
DC
FC
FC
8C
8C
8C
ENDCHAR
STARTCHAR abreve
ENCODING 259
SWIDTH 500 0
DWIDTH 6 0
BBX 4 8 1 0
BITMAP
F0
00
F0
F0
90
90
F0
F0
ENDCHAR
STARTCHAR Aogonek
ENCODING 260
SWIDTH 625 0
DWIDTH 8 0
BBX 6 11 1 -3
BITMAP
F8
DC
8C
FC
FC
8C
8C
8C
1C
1C
18
ENDCHAR
STARTCHAR aogonek
ENCODING 261
SWIDTH 500 0
DWIDTH 6 0
BBX 4 9 1 -3
BITMAP
F0
F0
90
90
F0
F0
30
30
30
ENDCHAR
STARTCHAR Cacute
ENCODING 262
SWIDTH 625 0
DWIDTH 8 0
BBX 6 9 1 0
BITMAP
10
78
FC
CC
C0
C0
C0
FC
78
ENDCHAR
STARTCHAR cacute
ENCODING 263
SWIDTH 500 0
DWIDTH 6 0
BBX 4 8 1 0
BITMAP
60
00
F0
F0
80
80
F0
F0
ENDCHAR
STARTCHAR Ccircumflex
ENCODING 264
SWIDTH 625 0
DWIDTH 8 0
BBX 6 9 1 0
BITMAP
30
78
FC
CC
C0
C0
C0
FC
78
ENDCHAR
STARTCHAR ccircumflex
ENCODING 265
SWIDTH 500 0
DWIDTH 6 0
BBX 4 8 1 0
BITMAP
F0
00
F0
F0
80
80
F0
F0
ENDCHAR
STARTCHAR Cdotaccent
ENCODING 266
SWIDTH 625 0
DWIDTH 8 0
BBX 6 9 1 0
BITMAP
20
78
FC
CC
C0
C0
C0
FC
78
ENDCHAR
STARTCHAR cdotaccent
ENCODING 267
SWIDTH 500 0
DWIDTH 6 0
BBX 4 8 1 0
BITMAP
60
00
F0
F0
80
80
F0
F0
ENDCHAR
STARTCHAR Ccaron
ENCODING 268
SWIDTH 625 0
DWIDTH 8 0
BBX 6 9 1 0
BITMAP
50
78
FC
CC
C0
C0
C0
FC
78
ENDCHAR
STARTCHAR ccaron
ENCODING 269
SWIDTH 500 0
DWIDTH 6 0
BBX 4 8 1 0
BITMAP
F0
00
F0
F0
80
80
F0
F0
ENDCHAR
STARTCHAR Dcaron
ENCODING 270
SWIDTH 687 0
DWIDTH 8 0
BBX 7 9 1 0
BITMAP
50
FC
FE
C6
C6
C6
C6
FE
FC
ENDCHAR
STARTCHAR dcaron
ENCODING 271
SWIDTH 750 0
DWIDTH 9 0
BBX 7 8 1 0
BITMAP
1A
1A
F8
F8
98
98
F8
F8
ENDCHAR
STARTCHAR Dcroat
ENCODING 272
SWIDTH 687 0
DWIDTH 8 0
BBX 8 8 0 0
BITMAP
7F
63
63
FB
63
63
7F
7E
ENDCHAR
STARTCHAR dcroat
ENCODING 273
SWIDTH 625 0
DWIDTH 8 0
BBX 6 8 1 0
BITMAP
1C
1C
F8
F8
98
98
F8
F8
ENDCHAR
STARTCHAR Emacron
ENCODING 274
SWIDTH 562 0
DWIDTH 7 0
BBX 5 9 1 0
BITMAP
70
F8
F8
C0
F8
F8
C0
F8
F8
ENDCHAR
STARTCHAR emacron
ENCODING 275
SWIDTH 500 0
DWIDTH 6 0
BBX 4 8 1 0
BITMAP
F0
00
F0
F0
F0
80
F0
F0
ENDCHAR
STARTCHAR Ebreve
ENCODING 276
SWIDTH 562 0
DWIDTH 7 0
BBX 5 9 1 0
BITMAP
50
F8
F8
C0
F8
F8
C0
F8
F8
ENDCHAR
STARTCHAR ebreve
ENCODING 277
SWIDTH 500 0
DWIDTH 6 0
BBX 4 8 1 0
BITMAP
F0
00
F0
F0
F0
80
F0
F0
ENDCHAR
STARTCHAR Edotaccent
ENCODING 278
SWIDTH 562 0
DWIDTH 7 0
BBX 5 9 1 0
BITMAP
10
F8
F8
C0
F8
F8
C0
F8
F8
ENDCHAR
STARTCHAR edotaccent
ENCODING 279
SWIDTH 500 0
DWIDTH 6 0
BBX 4 8 1 0
BITMAP
60
00
F0
F0
F0
80
F0
F0
ENDCHAR
STARTCHAR Eogonek
ENCODING 280
SWIDTH 562 0
DWIDTH 7 0
BBX 5 11 1 -3
BITMAP
F8
F8
C0
F8
F8
C0
F8
F8
18
18
10
ENDCHAR
STARTCHAR eogonek
ENCODING 281
SWIDTH 500 0
DWIDTH 6 0
BBX 4 9 1 -3
BITMAP
F0
F0
F0
80
F0
F0
70
70
60
ENDCHAR
STARTCHAR Ecaron
ENCODING 282
SWIDTH 562 0
DWIDTH 7 0
BBX 5 9 1 0
BITMAP
50
F8
F8
C0
F8
F8
C0
F8
F8
ENDCHAR
STARTCHAR ecaron
ENCODING 283
SWIDTH 500 0
DWIDTH 6 0
BBX 4 8 1 0
BITMAP
F0
00
F0
F0
F0
80
F0
F0
ENDCHAR
STARTCHAR Gcircumflex
ENCODING 284
SWIDTH 625 0
DWIDTH 8 0
BBX 6 9 1 0
BITMAP
30
78
FC
CC
DC
DC
CC
FC
78
ENDCHAR
STARTCHAR gcircumflex
ENCODING 285
SWIDTH 562 0
DWIDTH 7 0
BBX 5 10 1 -2
BITMAP
F0
00
F8
F8
98
98
F8
F8
18
F8
ENDCHAR
STARTCHAR Gbreve
ENCODING 286
SWIDTH 625 0
DWIDTH 8 0
BBX 6 9 1 0
BITMAP
50
78
FC
CC
DC
DC
CC
FC
78
ENDCHAR
STARTCHAR gbreve
ENCODING 287
SWIDTH 562 0
DWIDTH 7 0
BBX 5 10 1 -2
BITMAP
F0
00
F8
F8
98
98
F8
F8
18
F8
ENDCHAR
STARTCHAR Gdotaccent
ENCODING 288
SWIDTH 625 0
DWIDTH 8 0
BBX 6 9 1 0
BITMAP
10
78
FC
CC
DC
DC
CC
FC
78
ENDCHAR
STARTCHAR gdotaccent
ENCODING 289
SWIDTH 562 0
DWIDTH 7 0
BBX 5 10 1 -2
BITMAP
60
00
F8
F8
98
98
F8
F8
18
F8
ENDCHAR
STARTCHAR Gcommaaccent
ENCODING 290
SWIDTH 625 0
DWIDTH 8 0
BBX 6 11 1 -3
BITMAP
78
FC
CC
DC
DC
CC
FC
78
18
18
10
ENDCHAR
STARTCHAR gcommaaccent
ENCODING 291
SWIDTH 562 0
DWIDTH 7 0
BBX 5 11 1 -2
BITMAP
20
60
00
F8
F8
98
98
F8
F8
18
F8
ENDCHAR
STARTCHAR Hcircumflex
ENCODING 292
SWIDTH 625 0
DWIDTH 8 0
BBX 6 9 1 0
BITMAP
30
DC
8C
8C
FC
FC
8C
8C
8C
ENDCHAR
STARTCHAR hcircumflex
ENCODING 293
SWIDTH 562 0
DWIDTH 7 0
BBX 5 9 1 0
BITMAP
30
D0
80
B0
F8
98
98
98
98
ENDCHAR
STARTCHAR Hbar
ENCODING 294
SWIDTH 750 0
DWIDTH 9 0
BBX 9 8 -1 0
BITMAP
FF80
FF80
2300
3F00
2300
2300
2300
2300
ENDCHAR
STARTCHAR hbar
ENCODING 295
SWIDTH 562 0
DWIDTH 7 0
BBX 6 8 0 0
BITMAP
E0
E0
58
7C
4C
4C
4C
4C
ENDCHAR
STARTCHAR Itilde
ENCODING 296
SWIDTH 375 0
DWIDTH 5 0
BBX 3 9 1 0
BITMAP
A0
E0
E0
C0
C0
C0
C0
E0
E0
ENDCHAR
STARTCHAR itilde
ENCODING 297
SWIDTH 437 0
DWIDTH 5 0
BBX 6 9 -1 0
BITMAP
6C
FC
00
20
20
20
20
20
20
ENDCHAR
STARTCHAR Imacron
ENCODING 298
SWIDTH 375 0
DWIDTH 5 0
BBX 3 9 1 0
BITMAP
E0
E0
E0
C0
C0
C0
C0
E0
E0
ENDCHAR
STARTCHAR imacron
ENCODING 299
SWIDTH 375 0
DWIDTH 5 0
BBX 5 8 -1 0
BITMAP
F8
00
20
20
20
20
20
20
ENDCHAR
STARTCHAR Ibreve
ENCODING 300
SWIDTH 375 0
DWIDTH 5 0
BBX 3 9 1 0
BITMAP
A0
E0
E0
C0
C0
C0
C0
E0
E0
ENDCHAR
STARTCHAR ibreve
ENCODING 301
SWIDTH 312 0
DWIDTH 4 0
BBX 3 8 0 0
BITMAP
E0
00
40
40
40
40
40
40
ENDCHAR
STARTCHAR Iogonek
ENCODING 302
SWIDTH 375 0
DWIDTH 5 0
BBX 3 11 1 -3
BITMAP
E0
C0
C0
C0
C0
C0
E0
E0
E0
E0
C0
ENDCHAR
STARTCHAR iogonek
ENCODING 303
SWIDTH 250 0
DWIDTH 3 0
BBX 2 11 0 -3
BITMAP
40
00
40
40
40
40
40
40
C0
C0
C0
ENDCHAR
STARTCHAR Idotaccent
ENCODING 304
SWIDTH 375 0
DWIDTH 5 0
BBX 3 9 1 0
BITMAP
40
E0
E0
C0
C0
C0
C0
E0
E0
ENDCHAR
STARTCHAR dotlessi
ENCODING 305
SWIDTH 250 0
DWIDTH 3 0
BBX 1 6 1 0
BITMAP
80
80
80
80
80
80
ENDCHAR
STARTCHAR IJ
ENCODING 306
SWIDTH 812 0
DWIDTH 10 0
BBX 8 8 1 0
BITMAP
E7
C2
C2
C2
C2
C2
FE
FE
ENDCHAR
STARTCHAR ij
ENCODING 307
SWIDTH 500 0
DWIDTH 6 0
BBX 4 10 1 -2
BITMAP
90
00
90
90
90
90
90
90
10
70
ENDCHAR
STARTCHAR Jcircumflex
ENCODING 308
SWIDTH 500 0
DWIDTH 6 0
BBX 5 9 0 0
BITMAP
18
38
38
18
18
18
18
F8
70
ENDCHAR
STARTCHAR jcircumflex
ENCODING 309
SWIDTH 312 0
DWIDTH 4 0
BBX 4 10 -1 -2
BITMAP
70
00
20
20
20
20
20
20
20
E0
ENDCHAR
STARTCHAR Kcommaaccent
ENCODING 310
SWIDTH 625 0
DWIDTH 8 0
BBX 6 11 1 -3
BITMAP
9C
98
B0
F0
F0
B0
9C
8C
30
30
20
ENDCHAR
STARTCHAR kcommaaccent
ENCODING 311
SWIDTH 500 0
DWIDTH 6 0
BBX 5 11 0 -3
BITMAP
C0
C0
C8
F8
F0
F0
F8
C8
30
30
20
ENDCHAR
STARTCHAR kgreenlandic
ENCODING 312
SWIDTH 500 0
DWIDTH 6 0
BBX 5 6 0 0
BITMAP
C8
F8
F0
F0
F8
C8
ENDCHAR
STARTCHAR Lacute
ENCODING 313
SWIDTH 500 0
DWIDTH 6 0
BBX 4 9 1 0
BITMAP
20
C0
80
80
80
80
80
F0
F0
ENDCHAR
STARTCHAR lacute
ENCODING 314
SWIDTH 250 0
DWIDTH 3 0
BBX 1 9 1 0
BITMAP
80
80
80
80
80
80
80
80
80
ENDCHAR
STARTCHAR Lcommaaccent
ENCODING 315
SWIDTH 500 0
DWIDTH 6 0
BBX 4 11 1 -3
BITMAP
80
80
80
80
80
80
F0
F0
60
60
40
ENDCHAR
STARTCHAR lcommaaccent
ENCODING 316
SWIDTH 250 0
DWIDTH 3 0
BBX 1 11 1 -3
BITMAP
80
80
80
80
80
80
80
00
80
80
80
ENDCHAR
STARTCHAR Lcaron
ENCODING 317
SWIDTH 500 0
DWIDTH 6 0
BBX 4 8 1 0
BITMAP
90
90
90
80
80
80
F0
F0
ENDCHAR
STARTCHAR lcaron
ENCODING 318
SWIDTH 437 0
DWIDTH 5 0
BBX 4 9 1 0
BITMAP
30
B0
A0
80
80
80
80
80
80
ENDCHAR
STARTCHAR Ldot
ENCODING 319
SWIDTH 500 0
DWIDTH 6 0
BBX 4 8 1 0
BITMAP
80
80
80
B0
90
80
F0
F0
ENDCHAR
STARTCHAR ldot
ENCODING 320
SWIDTH 437 0
DWIDTH 5 0
BBX 4 8 1 0
BITMAP
80
80
80
B0
80
80
80
80
ENDCHAR
STARTCHAR Lslash
ENCODING 321
SWIDTH 500 0
DWIDTH 6 0
BBX 6 8 -1 0
BITMAP
2C
3C
38
70
E0
E0
3C
3C
ENDCHAR
STARTCHAR lslash
ENCODING 322
SWIDTH 375 0
DWIDTH 5 0
BBX 5 8 -1 0
BITMAP
20
38
38
70
E0
E0
20
20
ENDCHAR
STARTCHAR Nacute
ENCODING 323
SWIDTH 687 0
DWIDTH 8 0
BBX 7 9 1 0
BITMAP
10
D6
E6
F6
F6
BE
9E
9E
86
ENDCHAR
STARTCHAR nacute
ENCODING 324
SWIDTH 500 0
DWIDTH 6 0
BBX 4 8 1 0
BITMAP
60
00
F0
F0
90
90
90
90
ENDCHAR
STARTCHAR Ncommaaccent
ENCODING 325
SWIDTH 687 0
DWIDTH 8 0
BBX 7 11 1 -3
BITMAP
C6
E6
F6
F6
BE
9E
9E
86
10
10
10
ENDCHAR
STARTCHAR ncommaaccent
ENCODING 326
SWIDTH 500 0
DWIDTH 6 0
BBX 4 9 1 -3
BITMAP
F0
F0
90
90
90
90
60
60
40
ENDCHAR
STARTCHAR Ncaron
ENCODING 327
SWIDTH 687 0
DWIDTH 8 0
BBX 7 9 1 0
BITMAP
28
D6
E6
F6
F6
BE
9E
9E
86
ENDCHAR
STARTCHAR ncaron
ENCODING 328
SWIDTH 500 0
DWIDTH 6 0
BBX 4 8 1 0
BITMAP
F0
00
F0
F0
90
90
90
90
ENDCHAR
STARTCHAR napostrophe
ENCODING 329
SWIDTH 500 0
DWIDTH 6 0
BBX 6 9 -1 0
BITMAP
C0
C0
80
3C
3C
24
24
24
24
ENDCHAR
STARTCHAR Eng
ENCODING 330
SWIDTH 687 0
DWIDTH 8 0
BBX 7 10 1 -2
BITMAP
C6
E6
F6
F6
BE
9E
9E
86
1E
1C
ENDCHAR
STARTCHAR eng
ENCODING 331
SWIDTH 500 0
DWIDTH 6 0
BBX 4 8 1 -2
BITMAP
F0
F0
90
90
90
90
10
70
ENDCHAR
STARTCHAR Omacron
ENCODING 332
SWIDTH 687 0
DWIDTH 8 0
BBX 7 9 1 0
BITMAP
38
7C
FE
C6
C6
C6
C6
FE
7C
ENDCHAR
STARTCHAR omacron
ENCODING 333
SWIDTH 500 0
DWIDTH 6 0
BBX 4 8 1 0
BITMAP
F0
00
F0
F0
90
90
F0
F0
ENDCHAR
STARTCHAR Obreve
ENCODING 334
SWIDTH 687 0
DWIDTH 8 0
BBX 7 9 1 0
BITMAP
28
7C
FE
C6
C6
C6
C6
FE
7C
ENDCHAR
STARTCHAR obreve
ENCODING 335
SWIDTH 500 0
DWIDTH 6 0
BBX 4 8 1 0
BITMAP
F0
00
F0
F0
90
90
F0
F0
ENDCHAR
STARTCHAR Ohungarumlaut
ENCODING 336
SWIDTH 687 0
DWIDTH 8 0
BBX 7 9 1 0
BITMAP
18
7C
FE
C6
C6
C6
C6
FE
7C
ENDCHAR
STARTCHAR ohungarumlaut
ENCODING 337
SWIDTH 500 0
DWIDTH 6 0
BBX 4 8 1 0
BITMAP
A0
00
F0
F0
90
90
F0
F0
ENDCHAR
STARTCHAR OE
ENCODING 338
SWIDTH 937 0
DWIDTH 11 0
BBX 11 8 0 0
BITMAP
FFE0
CF00
CF00
CFE0
CF00
CF00
FFE0
7BE0
ENDCHAR
STARTCHAR oe
ENCODING 339
SWIDTH 812 0
DWIDTH 10 0
BBX 8 6 1 0
BITMAP
F6
FF
9F
98
FF
FE
ENDCHAR
STARTCHAR Racute
ENCODING 340
SWIDTH 625 0
DWIDTH 8 0
BBX 6 9 1 0
BITMAP
10
F8
FC
8C
FC
F8
8C
8C
8C
ENDCHAR
STARTCHAR racute
ENCODING 341
SWIDTH 500 0
DWIDTH 6 0
BBX 4 8 1 0
BITMAP
60
00
F0
F0
80
80
80
80
ENDCHAR
STARTCHAR Rcommaaccent
ENCODING 342
SWIDTH 625 0
DWIDTH 8 0
BBX 6 11 1 -3
BITMAP
F8
FC
8C
FC
F8
8C
8C
8C
10
10
10
ENDCHAR
STARTCHAR rcommaaccent
ENCODING 343
SWIDTH 500 0
DWIDTH 6 0
BBX 4 9 1 -3
BITMAP
F0
F0
80
80
80
80
60
60
40
ENDCHAR
STARTCHAR Rcaron
ENCODING 344
SWIDTH 625 0
DWIDTH 8 0
BBX 6 9 1 0
BITMAP
50
F8
FC
8C
FC
F8
8C
8C
8C
ENDCHAR
STARTCHAR rcaron
ENCODING 345
SWIDTH 500 0
DWIDTH 6 0
BBX 4 8 1 0
BITMAP
E0
00
F0
F0
80
80
80
80
ENDCHAR
STARTCHAR Sacute
ENCODING 346
SWIDTH 625 0
DWIDTH 8 0
BBX 6 9 1 0
BITMAP
10
F8
FC
8C
F8
FC
0C
FC
F8
ENDCHAR
STARTCHAR sacute
ENCODING 347
SWIDTH 500 0
DWIDTH 6 0
BBX 4 8 1 0
BITMAP
60
00
F0
F0
F0
F0
F0
F0
ENDCHAR
STARTCHAR Scircumflex
ENCODING 348
SWIDTH 625 0
DWIDTH 8 0
BBX 6 9 1 0
BITMAP
30
F8
FC
8C
F8
FC
0C
FC
F8
ENDCHAR
STARTCHAR scircumflex
ENCODING 349
SWIDTH 500 0
DWIDTH 6 0
BBX 4 8 1 0
BITMAP
F0
00
F0
F0
F0
F0
F0
F0
ENDCHAR
STARTCHAR Scedilla
ENCODING 350
SWIDTH 625 0
DWIDTH 8 0
BBX 6 11 1 -3
BITMAP
F8
FC
8C
F8
FC
0C
FC
F8
30
30
30
ENDCHAR
STARTCHAR scedilla
ENCODING 351
SWIDTH 500 0
DWIDTH 6 0
BBX 4 9 1 -3
BITMAP
F0
F0
F0
F0
F0
F0
70
70
60
ENDCHAR
STARTCHAR Scaron
ENCODING 352
SWIDTH 625 0
DWIDTH 8 0
BBX 6 9 1 0
BITMAP
50
F8
FC
8C
F8
FC
0C
FC
F8
ENDCHAR
STARTCHAR scaron
ENCODING 353
SWIDTH 500 0
DWIDTH 6 0
BBX 4 8 1 0
BITMAP
F0
00
F0
F0
F0
F0
F0
F0
ENDCHAR
STARTCHAR Tcommaaccent
ENCODING 354
SWIDTH 625 0
DWIDTH 8 0
BBX 6 11 1 -3
BITMAP
FC
30
30
30
30
30
30
30
70
70
60
ENDCHAR
STARTCHAR tcommaaccent
ENCODING 355
SWIDTH 312 0
DWIDTH 4 0
BBX 3 11 0 -3
BITMAP
40
40
E0
E0
40
40
60
60
60
60
40
ENDCHAR
STARTCHAR Tcaron
ENCODING 356
SWIDTH 625 0
DWIDTH 8 0
BBX 6 9 1 0
BITMAP
50
FC
FC
30
30
30
30
30
30
ENDCHAR
STARTCHAR tcaron
ENCODING 357
SWIDTH 437 0
DWIDTH 5 0
BBX 5 9 0 0
BITMAP
18
58
50
E0
E0
40
40
60
60
ENDCHAR
STARTCHAR Tbar
ENCODING 358
SWIDTH 625 0
DWIDTH 8 0
BBX 6 8 1 0
BITMAP
FC
30
30
F8
F8
30
30
30
ENDCHAR
STARTCHAR tbar
ENCODING 359
SWIDTH 312 0
DWIDTH 4 0
BBX 3 8 0 0
BITMAP
40
40
E0
E0
E0
E0
60
60
ENDCHAR
STARTCHAR Utilde
ENCODING 360
SWIDTH 687 0
DWIDTH 8 0
BBX 7 9 1 0
BITMAP
18
F6
C6
C6
C6
C6
C6
FE
7C
ENDCHAR
STARTCHAR utilde
ENCODING 361
SWIDTH 500 0
DWIDTH 6 0
BBX 4 8 1 0
BITMAP
F0
00
90
90
90
90
F0
F0
ENDCHAR
STARTCHAR Umacron
ENCODING 362
SWIDTH 687 0
DWIDTH 8 0
BBX 7 9 1 0
BITMAP
38
C6
C6
C6
C6
C6
C6
FE
7C
ENDCHAR
STARTCHAR umacron
ENCODING 363
SWIDTH 500 0
DWIDTH 6 0
BBX 4 8 1 0
BITMAP
F0
00
90
90
90
90
F0
F0
ENDCHAR
STARTCHAR Ubreve
ENCODING 364
SWIDTH 687 0
DWIDTH 8 0
BBX 7 9 1 0
BITMAP
28
D6
C6
C6
C6
C6
C6
FE
7C
ENDCHAR
STARTCHAR ubreve
ENCODING 365
SWIDTH 500 0
DWIDTH 6 0
BBX 4 8 1 0
BITMAP
F0
00
90
90
90
90
F0
F0
ENDCHAR
STARTCHAR Uring
ENCODING 366
SWIDTH 687 0
DWIDTH 8 0
BBX 7 9 1 0
BITMAP
10
FE
C6
C6
C6
C6
C6
FE
7C
ENDCHAR
STARTCHAR uring
ENCODING 367
SWIDTH 500 0
DWIDTH 6 0
BBX 4 8 1 0
BITMAP
F0
60
90
90
90
90
F0
F0
ENDCHAR
STARTCHAR Uhungarumlaut
ENCODING 368
SWIDTH 687 0
DWIDTH 8 0
BBX 7 9 1 0
BITMAP
18
F6
C6
C6
C6
C6
C6
FE
7C
ENDCHAR
STARTCHAR uhungarumlaut
ENCODING 369
SWIDTH 500 0
DWIDTH 6 0
BBX 4 8 1 0
BITMAP
A0
00
90
90
90
90
F0
F0
ENDCHAR
STARTCHAR Uogonek
ENCODING 370
SWIDTH 687 0
DWIDTH 8 0
BBX 7 11 1 -3
BITMAP
C6
C6
C6
C6
C6
C6
FE
7C
18
18
10
ENDCHAR
STARTCHAR uogonek
ENCODING 371
SWIDTH 500 0
DWIDTH 6 0
BBX 4 9 1 -3
BITMAP
90
90
90
90
F0
F0
30
30
30
ENDCHAR
STARTCHAR Wcircumflex
ENCODING 372
SWIDTH 750 0
DWIDTH 9 0
BBX 7 9 1 0
BITMAP
10
AA
82
82
92
92
92
FE
6C
ENDCHAR
STARTCHAR wcircumflex
ENCODING 373
SWIDTH 750 0
DWIDTH 9 0
BBX 7 8 1 0
BITMAP
38
00
92
92
92
92
FE
FE
ENDCHAR
STARTCHAR Ycircumflex
ENCODING 374
SWIDTH 625 0
DWIDTH 8 0
BBX 6 9 1 0
BITMAP
30
DC
DC
D8
F8
30
30
30
30
ENDCHAR
STARTCHAR ycircumflex
ENCODING 375
SWIDTH 500 0
DWIDTH 6 0
BBX 4 10 1 -2
BITMAP
F0
00
90
90
90
90
F0
F0
70
E0
ENDCHAR
STARTCHAR Ydieresis
ENCODING 376
SWIDTH 625 0
DWIDTH 8 0
BBX 6 9 1 0
BITMAP
50
8C
DC
D8
F8
30
30
30
30
ENDCHAR
STARTCHAR Zacute
ENCODING 377
SWIDTH 687 0
DWIDTH 8 0
BBX 8 9 0 0
BITMAP
08
FF
FF
0E
1C
38
70
FF
FF
ENDCHAR
STARTCHAR zacute
ENCODING 378
SWIDTH 500 0
DWIDTH 6 0
BBX 4 8 1 0
BITMAP
60
00
F0
F0
60
60
F0
F0
ENDCHAR
STARTCHAR Zdotaccent
ENCODING 379
SWIDTH 687 0
DWIDTH 8 0
BBX 8 9 0 0
BITMAP
10
FF
FF
0E
1C
38
70
FF
FF
ENDCHAR
STARTCHAR zdotaccent
ENCODING 380
SWIDTH 500 0
DWIDTH 6 0
BBX 4 8 1 0
BITMAP
60
00
F0
F0
60
60
F0
F0
ENDCHAR
STARTCHAR Zcaron
ENCODING 381
SWIDTH 687 0
DWIDTH 8 0
BBX 8 9 0 0
BITMAP
28
FF
FF
0E
1C
38
70
FF
FF
ENDCHAR
STARTCHAR zcaron
ENCODING 382
SWIDTH 500 0
DWIDTH 6 0
BBX 4 8 1 0
BITMAP
F0
00
F0
F0
60
60
F0
F0
ENDCHAR
STARTCHAR Euro
ENCODING 8364
SWIDTH 625 0
DWIDTH 8 0
BBX 6 8 1 0
BITMAP
7C
EC
F0
F0
F0
F0
FC
38
ENDCHAR
STARTCHAR uni3000
ENCODING 12288
SWIDTH 1000 0
DWIDTH 12 0
BBX 1 1 0 0
BITMAP
00
ENDCHAR
STARTCHAR .notdef
ENCODING -1
SWIDTH 365 0
DWIDTH 4 0
BBX 4 9 0 0
BITMAP
F0
90
90
90
90
90
90
90
F0
ENDCHAR
STARTCHAR .null
ENCODING -1
SWIDTH 0 0
DWIDTH 0 0
BBX 1 1 0 0
BITMAP
00
ENDCHAR
STARTCHAR nonmarkingreturn
ENCODING -1
SWIDTH 333 0
DWIDTH 4 0
BBX 1 1 0 0
BITMAP
00
ENDCHAR
ENDFONT
